<svg width="18" height="18" viewBox="0 0 18 18" fill="none" xmlns="http://www.w3.org/2000/svg">
<path d="M8.99609 0.254297C12.1004 0.254297 14.9258 1.88555 16.5 4.52773V0.875C16.5 0.529687 16.7812 0.25 17.125 0.25C17.4688 0.25 17.75 0.529687 17.75 0.875V5.875C17.75 6.21875 17.4688 6.5 17.125 6.5H12.125C11.7812 6.5 11.5 6.21875 11.5 5.875C11.5 5.53125 11.7812 5.25 12.125 5.25H15.4785C14.1367 2.93359 11.6914 1.5 9 1.5C4.86328 1.5 1.5 4.86328 1.5 9C1.5 13.1367 4.86445 16.5 9 16.5C11.3234 16.5 13.4805 15.4488 14.9102 13.6156C15.1226 13.3422 15.5148 13.2921 15.7879 13.5082C16.0595 13.7206 16.1077 14.1137 15.8953 14.3848C14.2234 16.5234 11.7039 17.7461 8.99297 17.7461C4.17188 17.7461 0.25 13.8242 0.25 9C0.25 4.17578 4.17187 0.254297 8.99609 0.254297Z" fill="#8C96AF"/>
</svg>
